# xmcd
#
# Track frame offsets:
#	150
#	15461
#	26752
#	39421
#	56010
#	71920
#	88916
#	105880
#	120008
#	141423
#
# Disc length: 2074 seconds
#
# Revision: 1
# Processed by: cddbd v1.5.1PL2 Copyright (c) Steve Scherf et al.
# Submitted via: audiograbber 1.83.01
#
DISCID=7e08180a
DTITLE=Diverse - Die Nissan Schlager
DYEAR=1900
DGENRE=Pop-Folk
TTITLE0=Nina&Mike - Paloma Blanca
TTITLE1=Siw Malmkvist - Liebeskummer lohn sich nicht
TTITLE2=Roberto Blanco - Ein bisschen Spaß muss sein
TTITLE3=Henry Valentino - Im Wagen vor mir
TTITLE4=Katja Ebstein - Wunder gibt es immer wieder
TTITLE5=Jürgen Marcus - Eine neue Liebe ist wie ein neues Leben
TTITLE6=Chris Roberts - Du kannst nicht immer 17 sein
TTITLE7=Bata Illic - Michaele
TTITLE8=Christian Anders - Es fährt ein Zug nach Nirgendwo
TTITLE9=Costa Cordales - Anita
EXTD=
EXTT0=
EXTT1=
EXTT2=
EXTT3=
EXTT4=
EXTT5=
EXTT6=
EXTT7=
EXTT8=
EXTT9=
PLAYORDER=
